<svg xmlns="http://www.w3.org/2000/svg"  viewBox="0 0 50 50" width="100px" height="100px"><path d="M 25 2 C 12.309288 2 2 12.309297 2 25 C 2 37.690703 12.309288 48 25 48 C 37.690712 48 48 37.690703 48 25 C 48 12.309297 37.690712 2 25 2 z M 25 4 C 36.609833 4 46 13.390175 46 25 C 46 36.609825 36.609833 46 25 46 C 13.390167 46 4 36.609825 4 25 C 4 13.390175 13.390167 4 25 4 z M 20.5 15 C 18.578812 15 17 16.578812 17 18.5 L 17 26.5 C 17 27.340812 16.340812 28 15.5 28 L 10 28 L 10 30 L 15.5 30 C 17.421188 30 19 28.421188 19 26.5 L 19 18.5 C 19 17.659188 19.659188 17 20.5 17 C 21.340812 17 22 17.659188 22 18.5 L 22 31.5 C 22 33.421188 23.578812 35 25.5 35 C 27.421188 35 29 33.421188 29 31.5 L 29 23.5 C 29 22.659188 29.659188 22 30.5 22 C 31.340812 22 32 22.659188 32 23.5 L 32 26.5 C 32 28.421188 33.578812 30 35.5 30 L 40 30 L 40 28 L 35.5 28 C 34.659188 28 34 27.340812 34 26.5 L 34 23.5 C 34 21.578812 32.421188 20 30.5 20 C 28.578812 20 27 21.578812 27 23.5 L 27 31.5 C 27 32.340812 26.340812 33 25.5 33 C 24.659188 33 24 32.340812 24 31.5 L 24 18.5 C 24 16.578812 22.421188 15 20.5 15 z"/></svg>